<svg width="641" height="335" viewBox="0 0 641 335" fill="none" xmlns="http://www.w3.org/2000/svg">
<path d="M352.391 213.765V311.143M436.024 116V311.147M268.757 164.869V311.145M185.552 213.765V311.143M101.919 116V311.147M18.2852 262.64V311.147" stroke="white" stroke-width="36.547" stroke-linecap="round" stroke-linejoin="round"/>
<path d="M559.963 209.197H503.474M559.963 242.708H503.473M503.474 180.953H541.133M503.473 270.953H541.133M503.474 152.708H512.889M503.473 299.197H512.888" stroke="#E1E4E5" stroke-width="12.945" stroke-linecap="round" stroke-linejoin="round"/>
<path d="M541.967 98.676L449.912 62.029C448.504 61.4677 447 61.1893 445.485 61.2099C443.969 61.2305 442.473 61.5496 441.081 62.149L350.071 101.33M350.059 101.116L258.004 64.468C256.596 63.9066 255.092 63.6283 253.576 63.6491C252.061 63.6698 250.564 63.9892 249.172 64.589L158.163 103.77" stroke="#E1E4E5" stroke-width="4" stroke-linecap="round" stroke-linejoin="round"/>
<path d="M257.499 53.8557C263.078 56.0768 265.8 62.4002 263.579 67.9793C261.358 73.5584 255.034 76.2806 249.455 74.0595C243.876 71.8384 241.154 65.5151 243.375 59.9359C245.596 54.3568 251.919 51.6346 257.499 53.8557Z" fill="#E1E4E5"/>
<path d="M353.2 91.9561C358.779 94.1772 361.502 100.5 359.28 106.08C357.059 111.659 350.736 114.381 345.157 112.16C339.578 109.939 336.855 103.615 339.077 98.0363C341.298 92.4572 347.621 89.735 353.2 91.9561Z" fill="#E1E4E5"/>
<path d="M448.988 52.4808C454.567 54.7019 457.289 61.0253 455.068 66.6044C452.847 72.1835 446.524 74.9057 440.945 72.6846C435.366 70.4635 432.643 64.1402 434.865 58.5611C437.086 52.9819 443.409 50.2597 448.988 52.4808Z" fill="#E1E4E5"/>
<path d="M545.847 90.9689C551.426 93.19 554.148 99.5133 551.927 105.092C549.706 110.672 543.383 113.394 537.804 111.173C532.225 108.952 529.502 102.628 531.724 97.0491C533.945 91.47 540.268 88.7478 545.847 90.9689Z" fill="#E1E4E5"/>
<path d="M585.21 277.522C579.327 277.522 574.558 282.291 574.558 288.174C574.558 294.057 579.327 298.826 585.21 298.826C591.093 298.826 595.862 294.057 595.862 288.174C595.862 282.291 591.093 277.522 585.21 277.522Z" fill="white"/>
<path d="M492.231 30.537C483.799 30.537 476.963 23.7013 476.963 15.269C476.963 6.83675 483.799 0.0010376 492.231 0.0010376C500.663 0.0010376 507.499 6.83675 507.499 15.269C507.499 23.7013 500.663 30.537 492.231 30.537Z" fill="white"/>
<path d="M634.238 334.259C630.707 334.259 627.844 331.635 627.844 328.398C627.844 325.161 630.707 322.537 634.238 322.537C637.769 322.537 640.632 325.161 640.632 328.398C640.632 331.635 637.769 334.259 634.238 334.259Z" fill="#E1E4E5"/>
<path d="M355.052 170.179C352.242 170.179 349.963 167.901 349.963 165.09C349.963 162.279 352.242 160.001 355.052 160.001C357.863 160.001 360.141 162.279 360.141 165.09C360.141 167.901 357.863 170.179 355.052 170.179Z" fill="#E1E4E5"/>
<path d="M344.271 30.541C340.255 30.541 337 27.2856 337 23.27C337 19.2543 340.255 15.999 344.271 15.999C348.287 15.999 351.542 19.2543 351.542 23.27C351.542 27.2856 348.287 30.541 344.271 30.541Z" fill="#E1E4E5"/>
<path d="M614.442 179.008C614.442 183.124 611.105 186.461 606.989 186.461C602.873 186.461 599.536 183.124 599.536 179.008C599.536 174.892 602.873 171.555 606.989 171.555C611.105 171.555 614.442 174.892 614.442 179.008Z" fill="#E1E4E5"/>
<path d="M584.952 13H585.142C586.269 28.959 598.137 29.204 598.137 29.204C598.137 29.204 585.05 29.46 585.05 47.899C585.05 29.46 571.963 29.204 571.963 29.204C571.963 29.204 583.826 28.959 584.952 13V13ZM134.437 26H134.56C135.292 36.797 143 36.963 143 36.963C143 36.963 134.5 37.136 134.5 49.611C134.5 37.136 126 36.963 126 36.963C126 36.963 133.705 36.797 134.437 26Z" fill="#E1E4E5"/>
</svg>
