<svg width="46" height="17" viewBox="0 0 46 17" fill="none" xmlns="http://www.w3.org/2000/svg">
<path d="M37.6994 16.5896C37.083 16.5896 36.5434 16.4586 36.0809 16.1965C35.6185 15.9191 35.2564 15.5568 34.9942 15.1098C34.7477 14.6628 34.6243 14.1618 34.6243 13.6069C34.6243 13.0828 34.7552 12.5742 35.0173 12.0809C35.2948 11.5876 35.6494 11.1869 36.0809 10.8786L41.052 7.3179C41.391 7.07128 41.6454 6.77839 41.815 6.43929C41.9847 6.10018 42.0694 5.74564 42.0694 5.3757C42.0694 4.94411 41.9769 4.58186 41.7919 4.289C41.6069 3.9807 41.3448 3.7418 41.0058 3.57223C40.6668 3.40267 40.2581 3.3179 39.7804 3.3179H35.5029V0.404602H40.1734C41.237 0.404602 42.1541 0.628099 42.9249 1.07512C43.6957 1.52215 44.289 2.1233 44.7052 2.87859C45.1367 3.61848 45.3526 4.45085 45.3526 5.3757C45.3526 6.30056 45.1676 7.11752 44.7977 7.82657C44.4431 8.52021 43.8575 9.14449 43.0405 9.6994L38.0694 13.0751C38.0384 13.0905 38 13.1291 37.9538 13.1907C37.9075 13.237 37.8844 13.2986 37.8844 13.3757C37.8844 13.4836 37.9153 13.5607 37.9769 13.6069C38.0384 13.6532 38.1234 13.6763 38.2312 13.6763H45.8382V16.5896H37.6994Z" fill="white"/>
<path d="M24.8324 16.5896C23.9384 16.5896 23.1214 16.3738 22.3815 15.9422C21.657 15.5106 21.079 14.9326 20.6474 14.2081C20.2158 13.4682 20 12.6512 20 11.7572C20 11.1098 20.1387 10.5009 20.4162 9.93061C20.6936 9.3603 21.0713 8.85931 21.5491 8.42772C21.0713 7.99613 20.6936 7.49515 20.4162 6.92483C20.1387 6.35452 20 5.75336 20 5.12137C20 4.24275 20.2081 3.44891 20.6243 2.73986C21.0559 2.03082 21.6262 1.46819 22.3353 1.052C23.0597 0.620412 23.8536 0.404602 24.7168 0.404602H31.3757V3.3179H25.0867C24.763 3.3179 24.4624 3.40267 24.185 3.57223C23.9229 3.72637 23.7071 3.94217 23.5376 4.21963C23.3834 4.48168 23.3064 4.78226 23.3064 5.12137C23.3064 5.44507 23.3834 5.74564 23.5376 6.0231C23.7071 6.28515 23.9229 6.50093 24.185 6.6705C24.4624 6.82463 24.763 6.90171 25.0867 6.90171H30.5896V9.81501H25.2254C24.8709 9.81501 24.5472 9.90749 24.2543 10.0925C23.9615 10.262 23.7303 10.4932 23.5607 10.7861C23.3911 11.079 23.3064 11.4027 23.3064 11.7572C23.3064 12.1117 23.3911 12.4354 23.5607 12.7283C23.7303 13.0212 23.9615 13.2524 24.2543 13.4219C24.5472 13.5915 24.8709 13.6763 25.2254 13.6763H31.3757V16.5896H24.8324Z" fill="white"/>
<path d="M8.60549 16.2933C7.39161 16.2933 6.29335 16.091 5.31069 15.6864C4.34248 15.2673 3.51156 14.6965 2.81791 13.974C2.12427 13.2514 1.58959 12.4133 1.21387 11.4595C0.838145 10.5058 0.650284 9.48697 0.650284 8.40316C0.650284 7.31934 0.838145 6.30778 1.21387 5.36847C1.58959 4.41472 2.12427 3.57657 2.81791 2.85402C3.51156 2.13148 4.34248 1.5679 5.31069 1.16327C6.29335 0.758647 7.39161 0.556335 8.60549 0.556335C9.81936 0.556335 10.9104 0.758647 11.8786 1.16327C12.8613 1.5679 13.6994 2.13148 14.3931 2.85402C15.0867 3.57657 15.6214 4.41472 15.9971 5.36847C16.3728 6.30778 16.5607 7.31934 16.5607 8.40316C16.5607 9.48697 16.3728 10.5058 15.9971 11.4595C15.6214 12.4133 15.0867 13.2514 14.3931 13.974C13.6994 14.6965 12.8613 15.2673 11.8786 15.6864C10.9104 16.091 9.81936 16.2933 8.60549 16.2933ZM8.60549 13.5404C9.29913 13.5404 9.94219 13.4176 10.5347 13.1719C11.1272 12.9118 11.6402 12.5506 12.0737 12.0881C12.5217 11.6112 12.8613 11.0621 13.0925 10.4407C13.3381 9.81934 13.461 9.14015 13.461 8.40316C13.461 7.66616 13.3381 6.98697 13.0925 6.36558C12.8613 5.7442 12.5217 5.20229 12.0737 4.73986C11.6402 4.27743 11.1272 3.92339 10.5347 3.67772C9.94219 3.41761 9.29913 3.28755 8.60549 3.28755C7.91184 3.28755 7.26878 3.41761 6.6763 3.67772C6.08381 3.92339 5.56358 4.27743 5.1156 4.73986C4.68208 5.20229 4.34248 5.7442 4.09682 6.36558C3.8656 6.98697 3.74999 7.66616 3.74999 8.40316C3.74999 9.14015 3.8656 9.81934 4.09682 10.4407C4.34248 11.0621 4.68208 11.6112 5.1156 12.0881C5.56358 12.5506 6.08381 12.9118 6.6763 13.1719C7.26878 13.4176 7.91184 13.5404 8.60549 13.5404Z" fill="white"/>
</svg>
