<svg width="171" height="86" viewBox="0 0 171 86" fill="none" xmlns="http://www.w3.org/2000/svg">
<path d="M128.19 56C126.057 56 124.19 55.5467 122.59 54.64C120.99 53.68 119.737 52.4267 118.83 50.88C117.977 49.3333 117.55 47.6 117.55 45.68C117.55 43.8667 118.003 42.1067 118.91 40.4C119.87 38.6933 121.097 37.3067 122.59 36.24L139.79 23.92C140.963 23.0667 141.843 22.0533 142.43 20.88C143.017 19.7067 143.31 18.48 143.31 17.2C143.31 15.7067 142.99 14.4533 142.35 13.44C141.71 12.3733 140.803 11.5467 139.63 10.96C138.457 10.3733 137.043 10.08 135.39 10.08H120.59V0H136.75C140.43 0 143.603 0.7733 146.27 2.32C148.937 3.8667 150.99 5.9467 152.43 8.56C153.923 11.12 154.67 14 154.67 17.2C154.67 20.4 154.03 23.2267 152.75 25.68C151.523 28.08 149.497 30.24 146.67 32.16L129.47 43.84C129.363 43.8933 129.23 44.0267 129.07 44.24C128.91 44.4 128.83 44.6133 128.83 44.88C128.83 45.2533 128.937 45.52 129.15 45.68C129.363 45.84 129.657 45.92 130.03 45.92H156.35V56H128.19Z" fill="white"/>
<path d="M83.67 56C80.5767 56 77.75 55.2533 75.19 53.76C72.6833 52.2667 70.6833 50.2667 69.19 47.76C67.6967 45.2 66.95 42.3733 66.95 39.28C66.95 37.04 67.43 34.9333 68.39 32.96C69.35 30.9867 70.6567 29.2533 72.31 27.76C70.6567 26.2667 69.35 24.5333 68.39 22.56C67.43 20.5867 66.95 18.5067 66.95 16.32C66.95 13.28 67.67 10.5333 69.11 8.08C70.6033 5.6267 72.5767 3.68 75.03 2.24C77.5367 0.746702 80.2833 0 83.27 0H106.31V10.08H84.55C83.43 10.08 82.39 10.3733 81.43 10.96C80.5233 11.4933 79.7767 12.24 79.19 13.2C78.6567 14.1067 78.39 15.1467 78.39 16.32C78.39 17.44 78.6567 18.48 79.19 19.44C79.7767 20.3467 80.5233 21.0933 81.43 21.68C82.39 22.2133 83.43 22.48 84.55 22.48H103.59V32.56H85.03C83.8033 32.56 82.6833 32.88 81.67 33.52C80.6567 34.1067 79.8567 34.9067 79.27 35.92C78.6833 36.9333 78.39 38.0533 78.39 39.28C78.39 40.5067 78.6833 41.6267 79.27 42.64C79.8567 43.6533 80.6567 44.4533 81.67 45.04C82.6833 45.6267 83.8033 45.92 85.03 45.92H106.31V56H83.67Z" fill="white"/>
<path d="M27.525 54.975C23.325 54.975 19.525 54.275 16.125 52.875C12.775 51.425 9.9 49.45 7.5 46.95C5.1 44.45 3.25 41.55 1.95 38.25C0.65 34.95 0 31.425 0 27.675C0 23.925 0.65 20.425 1.95 17.175C3.25 13.875 5.1 10.975 7.5 8.47502C9.9 5.97502 12.775 4.02502 16.125 2.62502C19.525 1.22502 23.325 0.525024 27.525 0.525024C31.725 0.525024 35.5 1.22502 38.85 2.62502C42.25 4.02502 45.15 5.97502 47.55 8.47502C49.95 10.975 51.8 13.875 53.1 17.175C54.4 20.425 55.05 23.925 55.05 27.675C55.05 31.425 54.4 34.95 53.1 38.25C51.8 41.55 49.95 44.45 47.55 46.95C45.15 49.45 42.25 51.425 38.85 52.875C35.5 54.275 31.725 54.975 27.525 54.975ZM27.525 45.45C29.925 45.45 32.15 45.025 34.2 44.175C36.25 43.275 38.025 42.025 39.525 40.425C41.075 38.775 42.25 36.875 43.05 34.725C43.9 32.575 44.325 30.225 44.325 27.675C44.325 25.125 43.9 22.775 43.05 20.625C42.25 18.475 41.075 16.6 39.525 15C38.025 13.4 36.25 12.175 34.2 11.325C32.15 10.425 29.925 9.97502 27.525 9.97502C25.125 9.97502 22.9 10.425 20.85 11.325C18.8 12.175 17 13.4 15.45 15C13.95 16.6 12.775 18.475 11.925 20.625C11.125 22.775 10.725 25.125 10.725 27.675C10.725 30.225 11.125 32.575 11.925 34.725C12.775 36.875 13.95 38.775 15.45 40.425C17 42.025 18.8 43.275 20.85 44.175C22.9 45.025 25.125 45.45 27.525 45.45Z" fill="white"/>
<path d="M80.75 80.5H105.75" stroke="#CFCFCF" stroke-width="5"/>
<path d="M27.75 80.5H47.75" stroke="#CFCFCF" stroke-width="5"/>
<path d="M25.25 83V63" stroke="#CFCFCF" stroke-width="5"/>
<path d="M37.25 83V63" stroke="#CFCFCF" stroke-width="5"/>
<path d="M168.25 56V31" stroke="#CFCFCF" stroke-width="5"/>
<path d="M146.75 74.324H167.75" stroke="#CFCFCF" stroke-width="5"/>
<path d="M146.87 68C146.162 79.517 148.452 82.803 157.37 83" stroke="#CFCFCF" stroke-width="5"/>
<path d="M167.33 68C168.038 79.517 165.748 82.803 156.832 83" stroke="#CFCFCF" stroke-width="5"/>
</svg>
